<?xml version="1.0" encoding="utf-8"?>
<!-- Generator: Adobe Illustrator 16.0.3, SVG Export Plug-In . SVG Version: 6.00 Build 0)  -->
<!DOCTYPE svg PUBLIC "-//W3C//DTD SVG 1.1//EN" "http://www.w3.org/Graphics/SVG/1.1/DTD/svg11.dtd">
<svg version="1.1" id="Layer_1" fill="#cf9e69" xmlns="http://www.w3.org/2000/svg" xmlns:xlink="http://www.w3.org/1999/xlink" x="0px" y="0px"
	 width="44.02px" height="44.402px" viewBox="0 0 44.02 44.402" enable-background="new 0 0 44.02 44.402" xml:space="preserve">
<g>
	<path d="M25.264,30.239c-0.956,1.338-1.916,2.294-3.063,2.874c-1.147,0.574-2.298,0.957-3.828,0.957
		c-2.681,0-4.593-0.766-5.743-2.11c-1.339-1.53-2.104-3.633-2.104-6.317c0-4.015,1.147-7.266,3.445-9.949
		c2.103-2.677,4.784-4.019,8.038-4.019c1.147,0,2.298,0.191,3.254,0.765c0.765,0.577,1.53,1.342,2.107,2.298l1.147-2.298h4.979
		l-3.64,14.932v0.191c0,0.19-0.191,0.573-0.191,0.573c0,0.573,0.191,0.956,0.382,1.147c0.382,0.191,0.765,0.382,1.147,0.382
		c2.11,0,4.022-1.147,5.551-3.441c1.722-2.493,2.486-5.17,2.486-8.229c0-4.021-1.338-7.085-4.207-9.574
		c-2.684-2.486-6.317-3.828-10.913-3.828c-2.295,0-4.401,0.382-6.313,0.956c-1.916,0.577-3.828,1.533-5.361,2.681
		c-2.486,1.724-4.401,4.019-5.548,6.699c-1.342,2.684-2.107,5.552-2.107,8.802c0,4.979,1.724,8.803,4.784,11.869
		c3.254,2.868,7.464,4.404,12.634,4.404c2.68,0,5.169-0.389,7.464-1.153c2.294-0.956,4.596-1.912,6.508-3.442l2.295,3.251
		c-2.486,1.919-4.972,3.448-7.655,4.404c-2.677,0.956-5.549,1.339-8.611,1.339c-2.872,0-5.743-0.383-8.229-1.147
		c-2.489-0.765-4.787-2.104-6.699-3.64c-2.489-1.912-4.21-4.207-5.361-6.891C0.574,30.048,0,27.18,0,23.922
		c0-2.868,0.382-5.36,1.338-7.846c0.765-2.486,1.916-4.784,3.637-6.89c2.298-3.06,4.978-5.357,8.232-6.891
		C16.649,0.765,20.289,0,24.113,0c2.68,0,5.169,0.383,7.464,1.147c2.493,0.765,4.405,1.916,6.126,3.254
		c2.104,1.725,3.639,3.637,4.787,5.935c0.955,2.294,1.529,4.784,1.529,7.461c0,2.875-0.574,5.36-1.529,7.662
		c-0.957,2.294-2.492,4.206-4.405,5.736c-1.147,0.956-2.294,1.728-3.633,2.109c-1.338,0.574-2.684,0.766-4.022,0.766
		c-1.721,0-3.059-0.383-3.828-0.957C25.837,32.533,25.264,31.577,25.264,30.239L25.264,30.239z M26.029,19.524
		c-0.191-1.147-0.574-2.11-1.147-2.875c-0.574-0.574-1.533-0.956-2.489-0.956c-1.721,0-3.063,0.956-4.21,3.066
		c-1.342,1.912-1.916,4.207-1.916,6.883c0,1.346,0.191,2.493,0.765,3.258c0.577,0.765,1.342,1.147,2.298,1.147
		c1.342,0,2.489-0.573,3.445-1.53c0.956-0.955,1.725-2.294,2.107-3.83L26.029,19.524z"/>
</g>
</svg>
