<?xml version="1.0" encoding="utf-8"?>
<!-- Generator: Adobe Illustrator 16.0.3, SVG Export Plug-In . SVG Version: 6.00 Build 0)  -->
<!DOCTYPE svg PUBLIC "-//W3C//DTD SVG 1.1//EN" "http://www.w3.org/Graphics/SVG/1.1/DTD/svg11.dtd">
<svg version="1.1" id="Layer_1" fill="#cf9e69" xmlns="http://www.w3.org/2000/svg" xmlns:xlink="http://www.w3.org/1999/xlink" x="0px" y="0px"
	 width="34.183px" height="49.538px" viewBox="0 0 34.183 49.538" enable-background="new 0 0 34.183 49.538" xml:space="preserve">
<g>
	<path d="M18.836,15.351c-0.232-0.232-0.465-0.465-0.697-0.465c-0.232-0.232-0.697-0.232-0.929-0.232c-0.465,0-0.697,0-0.93,0.232
		c-0.464,0-0.697,0.232-0.929,0.465c-0.236,0.232-0.469,0.464-0.469,0.929c-0.232,0.232-0.232,0.465-0.232,0.929
		c0,0.232,0,0.697,0.232,0.93c0,0.232,0.232,0.473,0.469,0.697c0.232,0.241,0.465,0.465,0.929,0.705c0.232,0,0.465,0,0.93,0
		c0.232,0,0.697,0,0.929,0c0.232-0.24,0.465-0.464,0.697-0.705c0.232-0.224,0.469-0.464,0.701-0.697c0-0.232,0-0.697,0-0.93
		c0-0.464,0-0.697,0-0.929C19.305,15.815,19.069,15.583,18.836,15.351L18.836,15.351z M17.21,0c2.327,0,4.418,0.465,6.51,1.402
		c2.091,0.689,3.958,2.083,5.584,3.718c1.626,1.394,2.789,3.485,3.718,5.576c0.697,1.859,1.162,4.19,1.162,6.514
		c0,1.626-0.232,3.021-0.464,4.655c-0.465,1.395-1.162,2.789-1.859,4.183c-0.93,1.394-1.859,2.556-2.788,3.493
		c-0.93,0.93-2.091,1.627-3.021,2.324L17.21,49.538L8.373,31.864c-1.162-0.697-2.095-1.395-3.024-2.324
		c-1.162-0.938-2.091-2.1-2.788-3.493c-0.934-1.394-1.398-2.788-1.863-4.183C0.232,20.23,0,18.836,0,17.209
		c0-2.323,0.465-4.655,1.394-6.514C2.095,8.605,3.489,6.514,5.116,5.12C6.51,3.485,8.605,2.091,10.7,1.402
		C12.559,0.465,14.882,0,17.21,0L17.21,0z M22.093,5.12C20.699,4.415,18.836,4.19,17.21,4.19c-1.859,0-3.489,0.224-5.116,0.929
		C10.468,5.817,9.07,6.746,7.908,7.908c-1.162,1.162-2.095,2.564-2.792,4.182c-0.697,1.635-0.929,3.261-0.929,5.12
		c0,1.162,0,2.332,0.464,3.485c0.232,1.169,0.697,2.332,1.394,3.261c0.465,0.93,1.398,1.858,2.095,2.556
		c0.93,0.696,1.626,1.394,2.792,2.091l0.464,0.232l5.813,11.401l5.58-11.401l0.697-0.232c0.933-0.697,1.859-1.162,2.564-2.091
		c0.929-0.697,1.626-1.626,2.323-2.556c0.465-0.93,0.929-2.092,1.394-3.261c0.232-1.154,0.465-2.323,0.465-3.485
		c0-1.858-0.465-3.485-1.162-5.12c-0.465-1.394-1.394-3.021-2.789-4.182C25.118,6.746,23.72,5.817,22.093,5.12L22.093,5.12z
		 M19.77,11.161c0.697,0.24,1.394,0.705,2.091,1.394c0.465,0.465,0.929,1.17,1.394,2.099c0.232,0.697,0.465,1.626,0.465,2.556
		c0,0.93-0.232,1.626-0.465,2.556c-0.465,0.705-0.929,1.394-1.394,2.099c-0.697,0.465-1.394,0.93-2.091,1.395
		c-0.933,0.232-1.63,0.465-2.56,0.465c-0.93,0-1.859-0.232-2.56-0.465c-0.929-0.465-1.626-0.93-2.091-1.395
		c-0.697-0.705-1.162-1.394-1.394-2.099c-0.465-0.93-0.697-1.859-0.697-2.556c0-0.929,0.232-1.858,0.697-2.556
		c0.232-0.929,0.697-1.634,1.394-2.099c0.464-0.689,1.162-1.154,2.091-1.394c0.701-0.465,1.63-0.689,2.56-0.689
		C17.907,10.472,18.836,10.696,19.77,11.161L19.77,11.161z"/>
</g>
</svg>
