<?xml version="1.0" encoding="utf-8"?>
<!-- Generator: Adobe Illustrator 16.0.3, SVG Export Plug-In . SVG Version: 6.00 Build 0)  -->
<!DOCTYPE svg PUBLIC "-//W3C//DTD SVG 1.1//EN" "http://www.w3.org/Graphics/SVG/1.1/DTD/svg11.dtd">
<svg version="1.1" id="Layer_1" fill="#cf9e69" xmlns="http://www.w3.org/2000/svg" xmlns:xlink="http://www.w3.org/1999/xlink" x="0px" y="0px"
	 width="44.442px" height="44.442px" viewBox="0 0 44.442 44.442" enable-background="new 0 0 44.442 44.442" xml:space="preserve">
<g>
	<path d="M18.391,0h9.197v5.824l1.227,0.611l1.224,0.307l4.3-3.98l7.347,7.66l-3.98,3.987l0.614,1.225l0.305,1.225h5.819v10.729
		h-5.819l-0.305,1.227l-0.614,1.224l3.98,4.3l-7.347,7.347l-4.3-3.98l-1.224,0.614l-1.227,0.305v5.819H16.859v-5.819l-1.225-0.305
		l-1.225-0.614l-3.987,3.98l-7.66-7.347l3.98-4.3l-0.307-1.224l-0.611-1.227H0V16.859h5.824l0.611-1.225l0.307-1.225l-3.98-3.987
		l7.66-7.66l3.987,3.98l1.225-0.307l1.225-0.611V0H18.391z M24.525,3.374h-4.291v4.9l-1.233,0.312
		c-0.917,0.306-1.531,0.306-2.143,0.613c-0.612,0.306-1.225,0.612-1.838,0.918l-1.224,0.919l-3.375-3.681l-3.067,3.067l3.681,3.375
		l-0.919,1.224c-0.306,0.613-0.613,1.226-0.918,1.838c-0.308,0.612-0.308,1.226-0.613,2.144l-0.306,1.23H3.374v4.293H8.28
		l0.306,1.227c0.306,0.611,0.306,1.223,0.613,1.835c0.305,0.614,0.612,1.227,0.918,1.838l0.919,1.224l-3.681,3.688l3.067,2.754
		l3.375-3.378l1.224,0.624c0.613,0.305,1.226,0.612,1.838,0.916c0.612,0.308,1.226,0.615,2.143,0.615l1.233,0.304v5.208h4.291
		v-5.208l1.228-0.304c0.611,0,1.223-0.308,1.835-0.615c0.614-0.304,1.227-0.611,1.838-0.916l1.225-0.624l3.688,3.378l2.755-2.754
		l-3.379-3.688l0.624-1.224c0.305-0.611,0.612-1.224,0.919-1.838c0.305-0.612,0.612-1.224,0.612-1.835l0.304-1.227h5.208v-4.293
		h-5.208l-0.304-1.23c0-0.918-0.308-1.532-0.612-2.144c-0.307-0.612-0.614-1.225-0.919-1.838l-0.624-1.224l3.379-3.375l-2.755-3.067
		l-3.688,3.681l-1.225-0.919c-0.611-0.306-1.224-0.612-1.838-0.918c-0.612-0.308-1.224-0.308-1.835-0.613l-1.228-0.312V3.374z
		 M22.377,14.715c1.838,0,3.987,0.919,5.21,2.144c1.534,1.531,2.146,3.374,2.146,5.512c0,1.848-0.611,3.993-2.146,5.216
		c-1.224,1.531-3.372,2.146-5.21,2.146c-2.143,0-3.987-0.614-5.518-2.146c-1.225-1.224-2.143-3.368-2.143-5.216
		c0-2.138,0.917-3.981,2.143-5.512C18.391,15.634,20.235,14.715,22.377,14.715L22.377,14.715z M25.445,19.31
		c-0.92-0.919-1.843-1.225-3.068-1.225c-1.226,0-2.45,0.306-3.068,1.225c-0.919,0.618-1.225,1.842-1.225,3.062
		c0,1.235,0.306,2.155,1.225,3.074c0.618,0.611,1.842,1.223,3.068,1.223c1.225,0,2.148-0.611,3.068-1.223
		c0.611-0.919,1.223-1.839,1.223-3.074C26.668,21.152,26.057,19.927,25.445,19.31L25.445,19.31z"/>
</g>
</svg>
