<?xml version="1.0" encoding="utf-8"?>
<!-- Generator: Adobe Illustrator 16.0.3, SVG Export Plug-In . SVG Version: 6.00 Build 0)  -->
<!DOCTYPE svg PUBLIC "-//W3C//DTD SVG 1.1//EN" "http://www.w3.org/Graphics/SVG/1.1/DTD/svg11.dtd">
<svg version="1.1" id="Layer_1" fill="#cf9e69" xmlns="http://www.w3.org/2000/svg" xmlns:xlink="http://www.w3.org/1999/xlink" x="0px" y="0px"
	 width="50.703px" height="55.178px" viewBox="0 0 50.703 55.178" enable-background="new 0 0 50.703 55.178" xml:space="preserve">
<g>
	<path d="M43.134,41.299c-4.588-3.442-10.899-5.51-17.782-5.51c-6.882,0-13.191,2.067-17.78,5.51C2.867,44.852,0,49.788,0,55.178
		h3.098c0-4.474,2.409-8.489,6.31-11.473c4.014-2.979,9.75-4.932,15.944-4.932c6.195,0,11.93,1.952,15.944,4.932
		c3.9,2.983,6.312,6.999,6.312,11.473h3.095C50.703,49.788,47.837,44.852,43.134,41.299z"/>
	<path d="M25.352,32.924c4.476,0,8.605-1.952,11.585-4.817c2.984-2.983,4.818-7.113,4.818-11.702c0-4.474-1.834-8.604-4.818-11.587
		C36.25,4.13,35.562,3.557,34.76,2.983l-0.692-0.46l-0.229-0.115l-0.115-0.114H33.61V2.179c-0.229-0.115-0.344-0.115-0.573-0.229
		l-0.114-0.115h-0.114c-1.834-0.919-3.784-1.606-5.964-1.721h-0.115h-0.115L26.5,0h-0.115h-0.117h-0.114H26.04h-0.114h-0.115h-0.115
		h-0.114h-0.115h-0.115h-0.229h-0.229h-0.229H24.55h-0.231l-0.229,0.114H23.86h-0.229h-0.115h-0.229h-0.229l-0.229,0.115H22.6
		h-0.115l-0.229,0.115h-0.229h-0.231l-0.114,0.114h-0.229l-0.229,0.115h-0.229l-0.115,0.115h-0.229L20.42,0.802h-0.115l-0.231,0.115
		h-0.229L19.73,1.033h-0.229l-0.229,0.114l-0.114,0.115h-0.229l-0.115,0.114l-0.229,0.115h-0.229l-0.114,0.115l-0.229,0.114
		l-0.114,0.115L17.666,1.95h-0.114l-0.229,0.114l-0.115,0.115c-0.229,0.115-0.344,0.229-0.573,0.344
		c-1.034,0.689-2.065,1.377-2.867,2.294c-1.951,1.95-3.328,4.244-4.13,6.884c-0.115,0.229-0.115,0.458-0.229,0.688v0.114
		l-0.114,0.229v0.229v0.115l-0.115,0.458v0.229l-0.116,0.231v0.114v0.229v0.229v0.229l-0.115,0.115v0.114v0.114v0.229v0.229v0.231
		v0.229v0.115v0.229c0,0.344,0,0.688,0,1.032v0.573c0.46,3.901,2.18,7.458,4.82,10.097C16.749,30.972,20.764,32.924,25.352,32.924z
		 M11.931,15.601l0.114-0.229c0-0.114,0-0.344,0-0.458v-0.115v-0.114v-0.115l0.115-0.115V14.34v-0.115V14.11v-0.114v-0.115
		l0.114-0.117V13.65v-0.115v-0.114l0.115-0.229v-0.114v-0.115l0.115-0.229v-0.115v-0.115l0.114-0.114v-0.115V12.16l0.115-0.114
		v-0.115v-0.114h0.115v-0.115v-0.115l0.114-0.114v-0.117v-0.115h0.115v-0.114v-0.115l0.115-0.114l0.114-0.229l0.115-0.344V10.21
		h0.116v-0.115l0.115-0.229l0.115-0.115V9.637l0.114-0.116V9.405h0.115V9.291l0.115-0.115l0.229-0.344l0.229-0.229V8.489V8.374
		h0.115V8.26h0.115V8.145l0.114-0.114l0.115-0.114V7.801h0.114V7.687h0.115V7.572h0.115l0.114-0.115V7.343h0.115V7.228h0.115V7.111
		l0.114-0.114c2.525-2.409,5.852-3.899,9.522-3.899h0.115h0.115h0.114h0.115h0.115h0.114h0.115h0.114h0.117H26.5h0.114h0.115
		c1.604,0.229,3.098,0.573,4.474,1.261l0.115,0.115c-1.031,3.213-2.984,5.965-5.507,8.03c-2.867,2.294-6.424,3.557-10.21,3.557
		c-0.802,0-1.604,0-2.409-0.114c-0.458-0.115-0.802-0.115-1.261-0.231V15.601z M12.733,18.928c0.919,0.115,1.95,0.229,2.867,0.229
		c4.59,0,8.718-1.606,12.046-4.244c2.869-2.294,5.046-5.276,6.311-8.719c0.344,0.229,0.573,0.459,0.917,0.803
		c2.407,2.408,3.901,5.736,3.901,9.407c0,3.786-1.494,7.112-3.901,9.521c-2.525,2.411-5.851,3.9-9.522,3.9
		c-3.671,0-6.997-1.489-9.522-3.9c-1.833-1.948-3.211-4.359-3.669-7.111C12.39,18.928,12.619,18.928,12.733,18.928z"/>
</g>
</svg>
